REM DIRINDEX 1\2,1\3,1\4,1\5
REM DIRNAME cjc004,folder01,folder02,folder03,folder04
TITLE ""
FILE "1Q_j_2157-2170.mp3" MP3
  TRACK 01 AUDIO
    TITLE "3:cjc004_0170"
    INDEX 01 00:00:00
  TRACK 02 AUDIO
    TITLE "0:"
    INDEX 01 00:01:26
  TRACK 03 AUDIO
    TITLE "4:cjc004_0171"
    INDEX 01 00:01:56
  TRACK 04 AUDIO
    TITLE "0:"
    INDEX 01 00:03:31
  TRACK 05 AUDIO
    TITLE "5:cjc004_0172"
    INDEX 01 00:03:59
  TRACK 06 AUDIO
    TITLE "0:"
    INDEX 01 00:09:45
  TRACK 07 AUDIO
    TITLE "3:cjc004_0173"
    INDEX 01 00:10:25
  TRACK 08 AUDIO
    TITLE "0:"
    INDEX 01 00:11:25
  TRACK 09 AUDIO
    TITLE "4:cjc004_0174"
    INDEX 01 00:12:01
  TRACK 10 AUDIO
    TITLE "0:"
    INDEX 01 00:13:61
  TRACK 11 AUDIO
    TITLE "5:cjc004_0175"
    INDEX 01 00:14:17
  TRACK 12 AUDIO
    TITLE "0:"
    INDEX 01 00:20:10
  TRACK 13 AUDIO
    TITLE "3:cjc004_0176"
    INDEX 01 00:20:71
  TRACK 14 AUDIO
    TITLE "0:"
    INDEX 01 00:22:13
  TRACK 15 AUDIO
    TITLE "4:cjc004_0177"
    INDEX 01 00:22:40
  TRACK 16 AUDIO
    TITLE "0:"
    INDEX 01 00:24:41
  TRACK 17 AUDIO
    TITLE "5:cjc004_0178"
    INDEX 01 00:24:71
  TRACK 18 AUDIO
    TITLE "0:"
    INDEX 01 00:29:13
  TRACK 19 AUDIO
    TITLE "3:cjc004_0179"
    INDEX 01 00:29:68
  TRACK 20 AUDIO
    TITLE "0:"
    INDEX 01 00:31:16
  TRACK 21 AUDIO
    TITLE "4:cjc004_0180"
    INDEX 01 00:31:43
  TRACK 22 AUDIO
    TITLE "0:"
    INDEX 01 00:33:21
  TRACK 23 AUDIO
    TITLE "5:cjc004_0181"
    INDEX 01 00:33:54
  TRACK 24 AUDIO
    TITLE "0:"
    INDEX 01 00:37:56
  TRACK 25 AUDIO
    TITLE "3:cjc004_0182"
    INDEX 01 00:38:30
  TRACK 26 AUDIO
    TITLE "0:"
    INDEX 01 00:39:41
  TRACK 27 AUDIO
    TITLE "4:cjc004_0183"
    INDEX 01 00:39:72
  TRACK 28 AUDIO
    TITLE "0:"
    INDEX 01 00:41:40
  TRACK 29 AUDIO
    TITLE "5:cjc004_0184"
    INDEX 01 00:41:63
  TRACK 30 AUDIO
    TITLE "0:"
    INDEX 01 00:47:70
  TRACK 31 AUDIO
    TITLE "3:cjc004_0185"
    INDEX 01 00:48:48
  TRACK 32 AUDIO
    TITLE "0:"
    INDEX 01 00:49:70
  TRACK 33 AUDIO
    TITLE "4:cjc004_0186"
    INDEX 01 00:50:25
  TRACK 34 AUDIO
    TITLE "0:"
    INDEX 01 00:51:28
  TRACK 35 AUDIO
    TITLE "5:cjc004_0187"
    INDEX 01 00:51:56
  TRACK 36 AUDIO
    TITLE "0:"
    INDEX 01 00:55:46
  TRACK 37 AUDIO
    TITLE "3:cjc004_0188"
    INDEX 01 00:56:29
  TRACK 38 AUDIO
    TITLE "0:"
    INDEX 01 00:57:37
  TRACK 39 AUDIO
    TITLE "4:cjc004_0189"
    INDEX 01 00:57:66
  TRACK 40 AUDIO
    TITLE "0:"
    INDEX 01 00:59:02
  TRACK 41 AUDIO
    TITLE "5:cjc004_0190"
    INDEX 01 00:59:30
  TRACK 42 AUDIO
    TITLE "0:"
    INDEX 01 01:02:65
  TRACK 43 AUDIO
    TITLE "3:cjc004_0191"
    INDEX 01 01:03:24
  TRACK 44 AUDIO
    TITLE "0:"
    INDEX 01 01:04:48
  TRACK 45 AUDIO
    TITLE "4:cjc004_0192"
    INDEX 01 01:05:03
  TRACK 46 AUDIO
    TITLE "0:"
    INDEX 01 01:06:49
  TRACK 47 AUDIO
    TITLE "5:cjc004_0193"
    INDEX 01 01:07:00
  TRACK 48 AUDIO
    TITLE "0:"
    INDEX 01 01:11:31
  TRACK 49 AUDIO
    TITLE "3:cjc004_0194"
    INDEX 01 01:12:15
  TRACK 50 AUDIO
    TITLE "0:"
    INDEX 01 01:13:34
  TRACK 51 AUDIO
    TITLE "4:cjc004_0195"
    INDEX 01 01:13:69
  TRACK 52 AUDIO
    TITLE "0:"
    INDEX 01 01:15:17
  TRACK 53 AUDIO
    TITLE "5:cjc004_0196"
    INDEX 01 01:15:42
  TRACK 54 AUDIO
    TITLE "0:"
    INDEX 01 01:19:62
  TRACK 55 AUDIO
    TITLE "3:cjc004_0197"
    INDEX 01 01:20:38
  TRACK 56 AUDIO
    TITLE "0:"
    INDEX 01 01:22:48
  TRACK 57 AUDIO
    TITLE "4:cjc004_0198"
    INDEX 01 01:23:09
  TRACK 58 AUDIO
    TITLE "0:"
    INDEX 01 01:24:73
  TRACK 59 AUDIO
    TITLE "5:cjc004_0199"
    INDEX 01 01:25:25
  TRACK 60 AUDIO
    TITLE "0:"
    INDEX 01 01:29:19
  TRACK 61 AUDIO
    TITLE "3:cjc004_0200"
    INDEX 01 01:29:66
  TRACK 62 AUDIO
    TITLE "0:"
    INDEX 01 01:31:16
  TRACK 63 AUDIO
    TITLE "4:cjc004_0201"
    INDEX 01 01:31:39
  TRACK 64 AUDIO
    TITLE "0:"
    INDEX 01 01:32:55
  TRACK 65 AUDIO
    TITLE "5:cjc004_0202"
    INDEX 01 01:33:05
  TRACK 66 AUDIO
    TITLE "0:"
    INDEX 01 01:38:42
  TRACK 67 AUDIO
    TITLE "3:cjc004_0203"
    INDEX 01 01:38:73
  TRACK 68 AUDIO
    TITLE "0:"
    INDEX 01 01:40:31
  TRACK 69 AUDIO
    TITLE "4:cjc004_0204"
    INDEX 01 01:40:66
  TRACK 70 AUDIO
    TITLE "0:"
    INDEX 01 01:42:30
  TRACK 71 AUDIO
    TITLE "5:cjc004_0205"
    INDEX 01 01:42:57
  TRACK 72 AUDIO
    TITLE "0:"
    INDEX 01 01:46:53
  TRACK 73 AUDIO
    TITLE "3:cjc004_0206"
    INDEX 01 01:47:33
  TRACK 74 AUDIO
    TITLE "0:"
    INDEX 01 01:49:43
  TRACK 75 AUDIO
    TITLE "4:cjc004_0207"
    INDEX 01 01:49:73
  TRACK 76 AUDIO
    TITLE "0:"
    INDEX 01 01:52:28
  TRACK 77 AUDIO
    TITLE "5:cjc004_0208"
    INDEX 01 01:52:57
  TRACK 78 AUDIO
    TITLE "0:"
    INDEX 01 01:56:73
  TRACK 79 AUDIO
    TITLE "3:cjc004_0209"
    INDEX 01 01:57:57
  TRACK 80 AUDIO
    TITLE "0:"
    INDEX 01 01:58:74
  TRACK 81 AUDIO
    TITLE "4:cjc004_0210"
    INDEX 01 01:59:26
  TRACK 82 AUDIO
    TITLE "0:"
    INDEX 01 02:00:53
  TRACK 83 AUDIO
    TITLE "5:cjc004_0211"
    INDEX 01 02:01:05
  TRACK 84 AUDIO
    TITLE "0:"
    INDEX 01 02:04:37
